<?xml version="1.0" encoding="UTF-8" standalone="no"?>
<!-- Created with Inkscape (http://www.inkscape.org/) -->

<svg
   xmlns:dc="http://purl.org/dc/elements/1.1/"
   xmlns:cc="http://creativecommons.org/ns#"
   xmlns:rdf="http://www.w3.org/1999/02/22-rdf-syntax-ns#"
   xmlns:svg="http://www.w3.org/2000/svg"
   xmlns="http://www.w3.org/2000/svg"
   xmlns:sodipodi="http://sodipodi.sourceforge.net/DTD/sodipodi-0.dtd"
   xmlns:inkscape="http://www.inkscape.org/namespaces/inkscape"
   version="1.1"
   id="svg18"
   width="1274.5721"
   height="564.2464"
   viewBox="0 0 1274.5722 564.2464"
   sodipodi:docname="small_icon.svg"
   inkscape:version="0.92.5 (2060ec1f9f, 2020-04-08)"
   inkscape:export-filename="/home/jackson/Downloads/icon.png"
   inkscape:export-xdpi="96"
   inkscape:export-ydpi="96">
  <metadata
     id="metadata3939">
    <rdf:RDF>
      <cc:Work
         rdf:about="">
        <dc:format>image/svg+xml</dc:format>
        <dc:type
           rdf:resource="http://purl.org/dc/dcmitype/StillImage" />
        <dc:title></dc:title>
      </cc:Work>
    </rdf:RDF>
  </metadata>
  <defs
     id="defs22">
    <rect
       x="2479.8257"
       y="580.49982"
       width="879.22919"
       height="403.87979"
       id="rect753" />
    <clipPath
       clipPathUnits="userSpaceOnUse"
       id="clipPath48">
      <path
         d="M 5249.63,2006.44 H 7314.1 V 4070.92 H 5249.63 Z"
         id="path46"
         inkscape:connector-curvature="0" />
    </clipPath>
    <clipPath
       clipPathUnits="userSpaceOnUse"
       id="clipPath58">
      <path
         d="m 3404.81,1900.23 h 2140.11 v 779.488 H 3404.81 Z"
         id="path56"
         inkscape:connector-curvature="0" />
    </clipPath>
    <clipPath
       clipPathUnits="userSpaceOnUse"
       id="clipPath68">
      <path
         d="m 5144.34,2279.35 h 779.492 V 4419.46 H 5144.34 Z"
         id="path66"
         inkscape:connector-curvature="0" />
    </clipPath>
    <clipPath
       clipPathUnits="userSpaceOnUse"
       id="clipPath82">
      <path
         d="M 3753.48,2008.49 H 5817.95 V 4072.95 H 3753.48 Z"
         id="path80"
         inkscape:connector-curvature="0" />
    </clipPath>
    <clipPath
       clipPathUnits="userSpaceOnUse"
       id="clipPath100">
      <path
         d="M 5249.65,511.871 H 7314.1 v 2064.47 H 5249.65 Z"
         id="path98"
         inkscape:connector-curvature="0" />
    </clipPath>
    <clipPath
       clipPathUnits="userSpaceOnUse"
       id="clipPath110">
      <path
         d="m 3753.37,510.332 h 2064.48 v 2064.48 H 3753.37 Z"
         id="path108"
         inkscape:connector-curvature="0" />
    </clipPath>
    <clipPath
       clipPathUnits="userSpaceOnUse"
       id="clipPath130">
      <path
         d="m 5520.97,1900.57 h 2140.11 v 779.5 H 5520.97 Z"
         id="path128"
         inkscape:connector-curvature="0" />
    </clipPath>
    <clipPath
       clipPathUnits="userSpaceOnUse"
       id="clipPath148">
      <path
         d="m 5144.55,163.551 h 779.488 v 2140.11 H 5144.55 Z"
         id="path146"
         inkscape:connector-curvature="0" />
    </clipPath>
  </defs>
  <sodipodi:namedview
     id="namedview20"
     pagecolor="#ffffff"
     bordercolor="#666666"
     borderopacity="1.0"
     inkscape:showpageshadow="2"
     inkscape:pageopacity="0.0"
     inkscape:pagecheckerboard="0"
     inkscape:deskcolor="#d1d1d1"
     showgrid="false"
     inkscape:zoom="0.33864585"
     inkscape:cx="1009.5922"
     inkscape:cy="467.81488"
     inkscape:window-width="1920"
     inkscape:window-height="1016"
     inkscape:window-x="1920"
     inkscape:window-y="551"
     inkscape:window-maximized="1"
     inkscape:current-layer="g26"
     showguides="true"
     fit-margin-top="0"
     fit-margin-left="0"
     fit-margin-right="0"
     fit-margin-bottom="0">
    <inkscape:page
       x="0"
       y="0"
       id="page24"
       width="3427.8774"
       height="659.19177" />
  </sodipodi:namedview>
  <g
     id="g26"
     inkscape:groupmode="layer"
     inkscape:label="Page 1"
     transform="matrix(1.3333333,0,0,-1.3333333,-110.69967,612.59398)">
    <g
       id="g4102">
      <g
         transform="translate(7.6938557,18.702493)"
         id="g562">
        <g
           id="g42"
           transform="scale(0.1)">
          <g
             id="g44"
             clip-path="url(#clipPath48)">
            <path
               d="m 5684.05,2442.31 c 116.85,169.65 200.6,437.58 222.24,747.36 34.01,39.01 70.02,77.61 107.99,115.58 311.48,311.49 665.96,494.3 913.82,494.3 36.04,0 69.87,-3.87 100.94,-11.78 62.25,-244.74 -123.82,-659.9 -480.6,-1016.69 -38.14,-38.14 -76.96,-74.31 -116.19,-108.42 -310.13,-21.24 -578.36,-103.97 -748.2,-220.35"
               style="fill:#ef2e25;fill-opacity:1;fill-rule:nonzero;stroke:none"
               id="path50"
               inkscape:connector-curvature="0" />
          </g>
        </g>
        <g
           id="g52"
           transform="scale(0.1)">
          <g
             id="g54"
             clip-path="url(#clipPath58)">
            <path
               d="m 4474.14,1912.26 c -502.69,0 -926.55,163.03 -1057.3,378.87 130.75,215.84 554.61,376.56 1057.3,376.56 55.83,0 110.66,-1.95 164.25,-5.71 233.17,-202.57 479.08,-333.17 679.87,-370.83 -202.26,-38.14 -450.13,-169.33 -684.07,-373.38 -52.24,-3.63 -105.7,-5.51 -160.05,-5.51"
               style="fill:#204c85;fill-opacity:1;fill-rule:nonzero;stroke:none"
               id="path60"
               inkscape:connector-curvature="0" />
          </g>
        </g>
        <g
           id="g62"
           transform="scale(0.1)">
          <g
             id="g64"
             clip-path="url(#clipPath68)">
            <path
               d="m 5532.82,2291.55 c -0.03,0.01 -0.04,0.01 -0.07,0.02 l -0.02,0.02 c 0.03,0.01 0.1,0.02 0.13,0.03 0,-0.01 0,-0.03 0.01,-0.04 -0.02,-0.01 -0.04,-0.02 -0.05,-0.03 m 0.72,215.79 c -37.57,201.99 -168.25,449.74 -371.83,683.75 -3.52,51.46 -5.34,104.07 -5.34,157.58 0,504.58 159.28,929.71 376.36,1058.76 v 0 c 217.08,-129.05 379.07,-554.18 379.07,-1058.76 0,-54 -1.88,-107.09 -5.51,-159 -203.39,-233.31 -334.33,-480.44 -372.75,-682.33"
               style="fill:#da1e98;fill-opacity:1;fill-rule:nonzero;stroke:none"
               id="path70"
               inkscape:connector-curvature="0" />
            <path
               d="m 5533.06,2291.55 c -0.04,0.03 -0.07,0.04 -0.11,0.07 h -0.02 c -0.02,-0.02 -0.04,-0.03 -0.06,-0.04 -0.01,0.01 -0.01,0.03 -0.01,0.04 0.01,0 0.01,0.01 0.03,0.01 15.81,62.16 15.6,135.31 0.65,215.71 38.42,201.89 169.36,449.02 372.75,682.33 -21.64,-309.78 -105.39,-577.71 -222.24,-747.36 -66.6,-45.64 -118.08,-96.46 -150.99,-150.76"
               style="fill:#da1f26;fill-opacity:1;fill-rule:nonzero;stroke:none"
               id="path72"
               inkscape:connector-curvature="0" />
            <path
               d="m 5532.75,2291.57 c -0.02,0 -0.04,0.01 -0.06,0.01 0.02,0 0.03,0.01 0.04,0.01 l 0.02,-0.02"
               style="fill:#141742;fill-opacity:1;fill-rule:nonzero;stroke:none"
               id="path74"
               inkscape:connector-curvature="0" />
          </g>
        </g>
        <g
           id="g76"
           transform="scale(0.1)">
          <g
             id="g78"
             clip-path="url(#clipPath82)">
            <path
               d="m 5381.33,2443.53 c -168.64,115.29 -434.9,196.82 -742.94,218.45 -40.58,35.25 -80.76,72.68 -120.26,112.18 -355.46,355.44 -541.53,768.81 -481.37,1013.88 30.71,7.54 64.13,11.24 99.72,11.24 248.46,0 604.89,-180.04 915.81,-490.97 38.5,-38.5 74.99,-77.65 109.42,-117.22 21.14,-309.64 103.6,-577.59 219.62,-747.56"
               style="fill:#714180;fill-opacity:1;fill-rule:nonzero;stroke:none"
               id="path84"
               inkscape:connector-curvature="0" />
            <path
               d="m 5318.26,2291.15 c -200.79,37.66 -446.7,168.26 -679.87,370.83 308.04,-21.63 574.3,-103.16 742.94,-218.45 45.75,-67.01 96.73,-118.81 151.21,-151.91 -30.43,7.43 -63.43,11.07 -98.61,11.07 -36.41,0 -75.12,-3.9 -115.67,-11.54"
               style="fill:#18214e;fill-opacity:1;fill-rule:nonzero;stroke:none"
               id="path86"
               inkscape:connector-curvature="0" />
            <path
               d="m 5532.73,2291.59 c -32.7,54.91 -84.31,106.08 -151.4,151.94 -116.02,169.97 -198.48,437.92 -219.62,747.56 203.58,-234.01 334.26,-481.76 371.83,-683.75 -15.28,-80.29 -15.92,-153.43 -0.68,-215.72 -0.03,-0.01 -0.1,-0.02 -0.13,-0.03"
               style="fill:#6a1566;fill-opacity:1;fill-rule:nonzero;stroke:none"
               id="path88"
               inkscape:connector-curvature="0" />
            <path
               d="m 5532.86,2291.62 c -15.24,62.29 -14.6,135.43 0.68,215.72 14.95,-80.4 15.16,-153.55 -0.65,-215.71 -0.02,0 -0.02,-0.01 -0.03,-0.01"
               style="fill:#6d1c20;fill-opacity:1;fill-rule:nonzero;stroke:none"
               id="path90"
               inkscape:connector-curvature="0" />
            <path
               d="m 5532.69,2291.58 c -0.06,0.01 -0.09,0.02 -0.15,0.04 -54.48,33.1 -105.46,84.9 -151.21,151.91 67.09,-45.86 118.7,-97.03 151.4,-151.94 -0.01,0 -0.02,-0.01 -0.04,-0.01"
               style="fill:#0e0f2e;fill-opacity:1;fill-rule:nonzero;stroke:none"
               id="path92"
               inkscape:connector-curvature="0" />
          </g>
        </g>
        <g
           id="g94"
           transform="scale(0.1)">
          <g
             id="g96"
             clip-path="url(#clipPath100)">
            <path
               d="m 6930.18,783.98 c -248.18,0.012 -603.73,181.372 -914.87,492.53 -38.24,38.24 -74.55,77.14 -108.81,116.39 -21.44,308.9 -103.93,576.08 -219.84,745.58 170.42,-116.3 438.54,-199.47 748.12,-220.61 38.71,-33.77 77.01,-69.53 114.69,-107.2 355.45,-355.46 539.89,-770.45 479.73,-1015.518 -30.55,-7.5 -63.69,-11.172 -99.02,-11.172"
               style="fill:#fabc09;fill-opacity:1;fill-rule:nonzero;stroke:none"
               id="path102"
               inkscape:connector-curvature="0" />
          </g>
        </g>
        <g
           id="g104"
           transform="scale(0.1)">
          <g
             id="g106"
             clip-path="url(#clipPath110)">
            <path
               d="m 4138.31,783.531 c -36.41,0 -70.48,3.899 -101.79,11.871 -62.26,244.738 125.74,657.988 482.52,1014.758 37.82,37.82 76.29,73.72 115.15,107.61 308.12,21.39 574.73,103.52 744.29,218.98 -114.67,-169.66 -195.5,-436.19 -216.5,-744.16 -34.22,-39.37 -70.5,-78.33 -108.77,-116.6 -311.14,-311.131 -666.7,-492.459 -914.9,-492.459"
               style="fill:#129f79;fill-opacity:1;fill-rule:nonzero;stroke:none"
               id="path112"
               inkscape:connector-curvature="0" />
            <path
               d="m 4634.19,1917.77 c 233.94,204.05 481.81,335.24 684.07,373.38 39.82,-7.47 77.88,-11.29 113.69,-11.29 35.94,0 69.68,3.85 100.68,11.7 0.04,-0.02 0.07,-0.04 0.11,-0.06 -55.83,-33.23 -107.81,-86.04 -154.26,-154.75 -169.56,-115.46 -436.17,-197.59 -744.29,-218.98"
               style="fill:#144646;fill-opacity:1;fill-rule:nonzero;stroke:none"
               id="path114"
               inkscape:connector-curvature="0" />
            <path
               d="m 5532.77,2291.52 c 0,0.02 -0.01,0.03 -0.02,0.05 0.03,-0.01 0.04,-0.01 0.07,-0.02 -0.01,-0.01 -0.03,-0.02 -0.05,-0.03"
               style="fill:#383e57;fill-opacity:1;fill-rule:nonzero;stroke:none"
               id="path116"
               inkscape:connector-curvature="0" />
            <path
               d="m 5532.74,2291.5 c -0.04,0.02 -0.07,0.04 -0.11,0.06 0.03,0.01 0.03,0.01 0.06,0.02 0.02,0 0.04,-0.01 0.06,-0.01 0.01,-0.02 0.02,-0.03 0.02,-0.05 -0.01,-0.01 -0.02,-0.01 -0.03,-0.02"
               style="fill:#161825;fill-opacity:1;fill-rule:nonzero;stroke:none"
               id="path118"
               inkscape:connector-curvature="0" />
            <path
               d="m 5431.95,2279.86 c -35.81,0 -73.87,3.82 -113.69,11.29 40.55,7.64 79.26,11.54 115.67,11.54 35.18,0 68.18,-3.64 98.61,-11.07 0.03,-0.02 0.06,-0.04 0.09,-0.06 -31,-7.85 -64.74,-11.7 -100.68,-11.7"
               style="fill:#15212b;fill-opacity:1;fill-rule:nonzero;stroke:none"
               id="path120"
               inkscape:connector-curvature="0" />
            <path
               d="m 5532.63,2291.56 c -0.03,0.02 -0.06,0.04 -0.09,0.06 0.06,-0.02 0.09,-0.03 0.15,-0.04 -0.03,-0.01 -0.03,-0.01 -0.06,-0.02"
               style="fill:#0f101a;fill-opacity:1;fill-rule:nonzero;stroke:none"
               id="path122"
               inkscape:connector-curvature="0" />
          </g>
        </g>
        <g
           id="g124"
           transform="scale(0.1)">
          <g
             id="g126"
             clip-path="url(#clipPath130)">
            <path
               d="m 6590.3,1912.61 c -52.8,0 -104.7,1.79 -155.52,5.26 -234.4,204.55 -482.85,335.96 -685.41,373.89 202.1,38.05 449.61,168.06 682.88,370.9 51.6,3.54 104.39,5.37 158.05,5.37 504.57,0 929.71,-159.28 1058.75,-376.36 v 0 C 7520.01,2074.59 7094.87,1912.61 6590.3,1912.61"
               style="fill:#f46a1a;fill-opacity:1;fill-rule:nonzero;stroke:none"
               id="path132"
               inkscape:connector-curvature="0" />
            <path
               d="m 5533.3,2291.41 c -0.05,0.03 -0.11,0.07 -0.17,0.1 54.23,32.9 105.11,84.29 150.92,150.8 169.84,116.38 438.07,199.11 748.2,220.35 -233.27,-202.84 -480.78,-332.85 -682.88,-370.9 -40.23,7.53 -78.65,11.38 -114.8,11.38 -36.2,0 -70.11,-3.86 -101.27,-11.73"
               style="fill:#ed1d24;fill-opacity:1;fill-rule:nonzero;stroke:none"
               id="path134"
               inkscape:connector-curvature="0" />
            <path
               d="m 5533.13,2291.51 c -0.02,0.01 -0.05,0.03 -0.07,0.04 32.91,54.3 84.39,105.12 150.99,150.76 -45.81,-66.51 -96.69,-117.9 -150.92,-150.8"
               style="fill:#ca2128;fill-opacity:1;fill-rule:nonzero;stroke:none"
               id="path136"
               inkscape:connector-curvature="0" />
            <path
               d="m 6434.78,1917.87 c -309.58,21.14 -577.7,104.31 -748.12,220.61 -46.25,67.63 -97.84,119.73 -152.98,152.7 30.52,-7.42 63.65,-11.06 98.97,-11.06 36.72,0 75.78,3.93 116.72,11.64 202.56,-37.93 451.01,-169.34 685.41,-373.89"
               style="fill:#f1471d;fill-opacity:1;fill-rule:nonzero;stroke:none"
               id="path138"
               inkscape:connector-curvature="0" />
            <path
               d="m 5632.65,2280.12 c -35.32,0 -68.45,3.64 -98.97,11.06 -0.13,0.08 -0.25,0.15 -0.38,0.23 31.16,7.87 65.07,11.73 101.27,11.73 36.15,0 74.57,-3.85 114.8,-11.38 -40.94,-7.71 -80,-11.64 -116.72,-11.64"
               style="fill:#ed1c24;fill-opacity:1;fill-rule:nonzero;stroke:none"
               id="path140"
               inkscape:connector-curvature="0" />
          </g>
        </g>
        <g
           id="g142"
           transform="scale(0.1)">
          <g
             id="g144"
             clip-path="url(#clipPath148)">
            <path
               d="M 5533.14,175.582 C 5317.3,306.32 5156.58,730.191 5156.58,1232.87 c 0,54.23 1.84,107.59 5.4,159.72 202.7,233.22 332.6,480.62 370.58,682.63 38.25,-201.64 169.95,-448.58 373.94,-682.32 3.62,-52.24 5.5,-105.68 5.5,-160.03 0,-502.679 -163.02,-926.55 -378.86,-1057.288"
               style="fill:#72c82d;fill-opacity:1;fill-rule:nonzero;stroke:none"
               id="path150"
               inkscape:connector-curvature="0" />
            <path
               d="m 5906.5,1392.9 c -203.99,233.74 -335.69,480.68 -373.94,682.32 15.14,80.51 15.68,153.78 0.42,216.11 0.03,0 0.02,0 0.05,0.01 0.03,-0.01 0.04,-0.01 0.07,-0.02 33.35,-54.98 85.72,-106.54 153.56,-152.84 115.91,-169.5 198.4,-436.68 219.84,-745.58"
               style="fill:#7c832e;fill-opacity:1;fill-rule:nonzero;stroke:none"
               id="path152"
               inkscape:connector-curvature="0" />
            <path
               d="m 5533.1,2291.32 c -0.03,0.01 -0.04,0.01 -0.07,0.02 0.01,0 0.04,0.01 0.05,0.01 0.01,-0.01 0.01,-0.02 0.02,-0.03"
               style="fill:#882b30;fill-opacity:1;fill-rule:nonzero;stroke:none"
               id="path154"
               inkscape:connector-curvature="0" />
            <path
               d="m 5161.98,1392.59 c 21,307.97 101.83,574.5 216.5,744.16 68.45,46.6 121.08,98.64 154.24,154.3 -15.8,-62.28 -15.41,-135.44 -0.16,-215.83 -37.98,-202.01 -167.88,-449.41 -370.58,-682.63 m 370.89,898.71 c 0.01,0.01 0.01,0.01 0.01,0.03 v 0.01 c -0.02,0.04 -0.04,0.07 -0.06,0.11 0.04,-0.02 0.07,-0.04 0.11,-0.07 -0.02,0 -0.02,0 -0.01,-0.01 0.01,-0.01 0.04,-0.01 0.05,-0.02 l 0.01,-0.02 c -0.03,-0.01 -0.08,-0.02 -0.11,-0.03"
               style="fill:#0b8f4b;fill-opacity:1;fill-rule:nonzero;stroke:none"
               id="path156"
               inkscape:connector-curvature="0" />
            <path
               d="m 5532.97,2291.35 c -0.01,0.01 -0.04,0.01 -0.05,0.02 -0.01,0.01 -0.01,0.01 -0.01,0.02 0.02,-0.01 0.02,-0.01 0.02,-0.01 0.01,0.01 0.02,0.01 0.03,0.02 0,-0.01 0.01,-0.03 0.01,-0.05"
               style="fill:#363739;fill-opacity:1;fill-rule:nonzero;stroke:none"
               id="path158"
               inkscape:connector-curvature="0" />
            <path
               d="m 5378.48,2136.75 c 46.45,68.71 98.43,121.52 154.26,154.75 0.02,-0.02 0.05,-0.03 0.08,-0.05 0.02,-0.04 0.04,-0.07 0.06,-0.11 v -0.01 c 0,-0.02 0,-0.02 -0.01,-0.03 -0.03,-0.01 -0.06,-0.02 -0.09,-0.02 -0.02,-0.08 -0.04,-0.15 -0.06,-0.23 -33.16,-55.66 -85.79,-107.7 -154.24,-154.3"
               style="fill:#13221b;fill-opacity:1;fill-rule:nonzero;stroke:none"
               id="path160"
               inkscape:connector-curvature="0" />
            <path
               d="m 5532.93,2291.38 c -0.04,0.03 -0.07,0.05 -0.11,0.07 -0.02,0.03 -0.03,0.05 -0.05,0.07 0.02,0.01 0.04,0.02 0.05,0.03 0.01,0 0.04,-0.01 0.06,-0.01 0.01,-0.05 0.02,-0.1 0.03,-0.15"
               style="fill:#363739;fill-opacity:1;fill-rule:nonzero;stroke:none"
               id="path162"
               inkscape:connector-curvature="0" />
            <path
               d="m 5532.93,2291.38 v 0 c -0.03,0.06 -0.04,0.11 -0.05,0.16 0.01,-0.01 0.03,-0.01 0.05,-0.02 0.01,-0.04 0.02,-0.07 0.03,-0.12 -0.01,-0.01 -0.02,-0.01 -0.03,-0.02"
               style="fill:#363639;fill-opacity:1;fill-rule:nonzero;stroke:none"
               id="path164"
               inkscape:connector-curvature="0" />
            <path
               d="m 5532.82,2291.45 c -0.03,0.02 -0.06,0.03 -0.08,0.05 0.01,0.01 0.02,0.01 0.03,0.02 0.02,-0.02 0.03,-0.04 0.05,-0.07"
               style="fill:#0a0a0b;fill-opacity:1;fill-rule:nonzero;stroke:none"
               id="path166"
               inkscape:connector-curvature="0" />
            <path
               d="m 5532.98,2291.33 -0.01,0.02 c 0.02,0 0.04,-0.01 0.06,-0.01 -0.03,-0.01 -0.02,-0.01 -0.05,-0.01"
               style="fill:#72c82d;fill-opacity:1;fill-rule:nonzero;stroke:none"
               id="path168"
               inkscape:connector-curvature="0" />
            <path
               d="m 5533.03,2291.34 c -0.02,0 -0.04,0.01 -0.06,0.01 0,0.02 -0.01,0.04 -0.01,0.05 0.01,0.01 0.05,0.03 0.07,0.04 0.01,-0.02 0.03,-0.06 0.05,-0.09 -0.01,0 -0.04,-0.01 -0.05,-0.01"
               style="fill:#882c30;fill-opacity:1;fill-rule:nonzero;stroke:none"
               id="path170"
               inkscape:connector-curvature="0" />
            <path
               d="m 5532.88,2291.54 c -0.02,0 -0.05,0.01 -0.06,0.01 0.01,0.01 0.03,0.02 0.05,0.03 0,-0.02 0,-0.03 0.01,-0.04"
               style="fill:#782e32;fill-opacity:1;fill-rule:nonzero;stroke:none"
               id="path172"
               inkscape:connector-curvature="0" />
            <path
               d="m 5532.96,2291.4 c -0.01,0.05 -0.02,0.08 -0.03,0.12 -0.02,0.01 -0.04,0.01 -0.05,0.02 -0.01,0.01 -0.01,0.02 -0.01,0.04 0.02,0.01 0.04,0.02 0.06,0.04 h 0.02 c 0.04,-0.03 0.07,-0.04 0.11,-0.07 -0.02,-0.02 -0.04,-0.05 -0.05,-0.08 0.01,-0.01 0.01,-0.02 0.02,-0.03 -0.02,-0.01 -0.06,-0.03 -0.07,-0.04"
               style="fill:#782d31;fill-opacity:1;fill-rule:nonzero;stroke:none"
               id="path174"
               inkscape:connector-curvature="0" />
            <path
               d="m 5532.56,2075.22 c -15.25,80.39 -15.64,153.55 0.16,215.83 0.05,0.08 0.1,0.17 0.15,0.25 0.03,0.01 0.08,0.02 0.11,0.03 15.26,-62.33 14.72,-135.6 -0.42,-216.11"
               style="fill:#1e6843;fill-opacity:1;fill-rule:nonzero;stroke:none"
               id="path176"
               inkscape:connector-curvature="0" />
            <path
               d="m 5532.72,2291.05 c 0.02,0.08 0.04,0.15 0.06,0.23 0.03,0 0.06,0.01 0.09,0.02 -0.05,-0.08 -0.1,-0.17 -0.15,-0.25"
               style="fill:#151e1a;fill-opacity:1;fill-rule:nonzero;stroke:none"
               id="path178"
               inkscape:connector-curvature="0" />
            <path
               d="m 5533.08,2291.35 c -0.02,0.03 -0.04,0.07 -0.05,0.09 0.04,0.03 0.06,0.04 0.1,0.07 0.06,-0.03 0.12,-0.07 0.17,-0.1 -0.08,-0.02 -0.14,-0.04 -0.22,-0.06"
               style="fill:#882a30;fill-opacity:1;fill-rule:nonzero;stroke:none"
               id="path180"
               inkscape:connector-curvature="0" />
            <path
               d="m 5533.03,2291.44 c -0.01,0.01 -0.01,0.02 -0.02,0.03 0.01,0.03 0.03,0.06 0.05,0.08 0.02,-0.01 0.05,-0.03 0.07,-0.04 -0.04,-0.03 -0.06,-0.04 -0.1,-0.07"
               style="fill:#6b2e33;fill-opacity:1;fill-rule:nonzero;stroke:none"
               id="path182"
               inkscape:connector-curvature="0" />
            <path
               d="m 5686.66,2138.48 c -67.84,46.3 -120.21,97.86 -153.56,152.84 0.19,-0.05 0.39,-0.09 0.58,-0.14 55.14,-32.97 106.73,-85.07 152.98,-152.7"
               style="fill:#87312f;fill-opacity:1;fill-rule:nonzero;stroke:none"
               id="path184"
               inkscape:connector-curvature="0" />
            <path
               d="m 5533.68,2291.18 c -0.19,0.05 -0.39,0.09 -0.58,0.14 -0.01,0.01 -0.01,0.02 -0.02,0.03 0.08,0.02 0.14,0.04 0.22,0.06 0.13,-0.08 0.25,-0.15 0.38,-0.23"
               style="fill:#882a30;fill-opacity:1;fill-rule:nonzero;stroke:none"
               id="path186"
               inkscape:connector-curvature="0" />
          </g>
        </g>
      </g>
      <path
         d="m 1038.9539,248.41259 v 0 c -43.17704,90.79 -159.79004,163.63 -309.97004,195.309 55.149,-47.453 90.12,-117.705 90.12,-196.17 0,-78.133 -34.679,-148.120897 -89.427,-195.566997 149.846,32.193 266.166,105.776997 309.27704,196.427997"
         style="fill:#10427a;fill-opacity:1;fill-rule:nonzero;stroke:none;stroke-width:0.1"
         id="path38"
         inkscape:connector-curvature="0" />
      <path
         d="m 302.87386,247.55159 c 0,-78.133 34.678,-148.120897 89.426,-195.566997 -149.845,32.193 -266.166,105.776997 -309.275104,196.427997 43.175104,90.791 159.787104,163.629 309.969104,195.309 -55.15,-47.453 -90.12,-117.705 -90.12,-196.17"
         style="fill:#10427a;fill-opacity:1;fill-rule:nonzero;stroke:none;stroke-width:0.1"
         id="path40"
         inkscape:connector-curvature="0" />
    </g>
    <g
       id="g4119">
      <g
         id="text751"
         style="font-style:normal;font-variant:normal;font-weight:200;font-stretch:normal;font-size:254.00024414px;line-height:1.25;font-family:'DejaVu Sans';-inkscape-font-specification:'DejaVu Sans Ultra-Light';letter-spacing:-26.10000038px;white-space:pre;shape-inside:url(#rect753);fill:#10427a;fill-opacity:1;stroke:none;stroke-width:0.75"
         transform="scale(1,-1)"
         aria-label="Super" />
    </g>
  </g>
</svg>
