<?xml version="1.0" standalone="no"?>
<!DOCTYPE svg PUBLIC "-//W3C//DTD SVG 20010904//EN"
 "http://www.w3.org/TR/2001/REC-SVG-20010904/DTD/svg10.dtd">
<svg version="1.0" xmlns="http://www.w3.org/2000/svg"
 width="1275.000000pt" height="1275.000000pt" viewBox="0 0 1275.000000 1275.000000"
 preserveAspectRatio="xMidYMid meet">
<metadata>
Created by potrace 1.14, written by Peter Selinger 2001-2017
</metadata>
<g transform="translate(0.000000,1275.000000) scale(0.100000,-0.100000)"
fill="#000000" stroke="none">
<path d="M6320 9164 c-110 -86 -196 -212 -288 -424 -19 -43 -65 -187 -62 -192
1 -2 -4 -16 -10 -33 -7 -16 -14 -41 -16 -55 -3 -14 -11 -52 -19 -85 -7 -33
-16 -82 -20 -110 -4 -27 -9 -66 -12 -85 -2 -19 -6 -53 -8 -75 -2 -22 -6 -65
-9 -95 -7 -65 -8 -376 -2 -407 3 -14 -42 26 -127 110 -187 187 -290 274 -457
383 -41 27 -77 51 -80 55 -7 7 -74 43 -183 96 -116 58 -257 107 -362 128 -57
12 -220 14 -256 5 -44 -12 -49 -30 -44 -165 6 -206 101 -459 266 -715 54 -84
124 -183 154 -216 6 -7 26 -31 45 -55 69 -85 174 -195 286 -299 l59 -55 -225
-1 c-198 0 -263 -3 -385 -18 -43 -5 -135 -20 -185 -31 -14 -3 -34 -7 -45 -9
-108 -21 -315 -91 -422 -144 -84 -41 -125 -64 -133 -73 -3 -3 -22 -15 -42 -28
-21 -12 -38 -27 -38 -32 0 -5 -5 -9 -11 -9 -11 0 -79 -67 -116 -115 -20 -25
-21 -31 -8 -54 18 -34 88 -107 145 -152 49 -39 165 -109 181 -109 5 0 9 -5 9
-11 0 -6 7 -9 15 -5 8 3 15 1 15 -3 0 -19 327 -129 430 -145 14 -2 36 -7 50
-10 14 -3 43 -8 64 -11 21 -3 48 -8 60 -10 93 -22 498 -38 594 -24 l42 6 -131
-131 c-158 -157 -285 -310 -389 -467 -166 -250 -279 -528 -284 -696 0 -24 -5
-43 -9 -43 -5 0 -6 -4 -3 -8 2 -4 7 -39 11 -77 3 -38 10 -74 15 -79 18 -18
230 -13 326 8 89 19 283 94 389 151 74 40 170 99 173 108 2 4 8 7 13 7 5 0 29
15 53 33 24 17 56 41 72 52 81 57 223 182 336 297 113 114 152 148 133 119
-11 -19 -5 -392 9 -496 2 -16 7 -57 10 -90 7 -60 52 -296 62 -325 3 -8 5 -15
4 -15 0 0 9 -27 20 -60 12 -33 23 -67 25 -75 2 -8 4 -16 5 -17 2 -2 3 -6 5
-10 1 -5 7 -21 13 -36 7 -16 12 -31 12 -34 0 -27 142 -273 162 -281 4 -2 8 -7
8 -12 0 -11 77 -89 123 -124 l37 -28 38 28 c154 118 297 365 368 637 1 4 3 9
4 12 4 7 6 16 15 60 4 22 10 44 13 50 3 5 7 16 8 25 1 8 5 31 8 50 4 19 8 49
11 65 2 17 6 41 9 55 24 132 40 478 26 592 -7 53 -2 53 44 -1 68 -78 236 -237
321 -306 28 -22 55 -44 62 -50 6 -5 42 -32 80 -58 252 -178 505 -296 712 -332
87 -15 257 -13 274 4 7 7 11 51 10 113 -1 135 -2 153 -20 218 -8 30 -15 60
-17 65 -4 19 -27 90 -36 110 -28 69 -46 108 -77 170 -36 71 -113 206 -123 215
-3 3 -25 34 -49 70 -84 122 -196 255 -332 391 l-135 137 160 -1 c146 -1 320 7
371 17 11 2 47 7 80 11 33 3 83 11 110 16 28 6 61 12 75 15 67 13 198 48 223
61 15 7 27 11 27 9 0 -17 320 134 328 156 2 4 8 8 14 8 29 0 202 165 212 202
8 33 -95 142 -204 215 -76 51 -195 113 -217 113 -6 0 -13 4 -15 8 -3 7 -134
54 -203 72 -16 5 -55 15 -85 23 -30 8 -68 17 -85 20 -16 3 -70 12 -120 20 -89
16 -160 24 -265 32 -74 6 -359 6 -387 1 -13 -3 -23 -3 -23 0 0 2 62 66 138
142 115 114 184 193 315 362 50 64 166 261 219 370 28 59 76 185 82 216 2 10
9 31 15 47 6 15 9 27 6 27 -2 0 1 15 7 33 13 44 18 243 6 277 -12 36 -25 39
-160 34 -114 -4 -140 -7 -168 -17 -8 -3 -28 -9 -45 -13 -16 -4 -32 -8 -35 -9
-3 -1 -18 -5 -35 -10 -16 -4 -34 -10 -40 -14 -5 -3 -15 -6 -22 -7 -22 -4 -267
-126 -311 -155 -24 -16 -45 -29 -47 -29 -5 0 -174 -118 -192 -135 -6 -5 -26
-21 -44 -35 -102 -78 -232 -199 -346 -321 l-51 -56 1 171 c1 152 -13 411 -22
411 -1 0 -4 18 -6 40 -1 22 -6 51 -9 65 -3 14 -8 39 -10 57 -25 189 -147 516
-248 663 -57 84 -184 211 -210 210 -1 0 -23 -16 -48 -36z"/>
<path d="M8646 8957 c74 -60 302 -297 384 -399 116 -146 114 -143 125 -160 6
-8 38 -56 73 -106 34 -50 62 -96 62 -102 0 -5 5 -10 10 -10 6 0 10 -4 10 -10
0 -5 17 -38 38 -72 94 -156 193 -372 268 -585 50 -142 126 -427 138 -518 3
-22 7 -49 9 -60 9 -41 23 -148 34 -248 15 -143 8 -591 -12 -722 -2 -16 -7 -52
-10 -80 -3 -27 -17 -104 -30 -170 -13 -66 -26 -131 -29 -145 -3 -14 -10 -41
-16 -60 -6 -19 -13 -44 -15 -55 -7 -30 -56 -186 -68 -215 -6 -14 -11 -27 -12
-30 -6 -24 -18 -59 -25 -75 -9 -18 -30 -71 -35 -85 -21 -61 -149 -317 -208
-415 -74 -124 -150 -239 -159 -243 -5 -2 -8 -8 -8 -13 0 -6 -11 -22 -25 -37
-14 -15 -25 -32 -25 -39 0 -6 -4 -13 -8 -15 -5 -1 -40 -41 -77 -88 -83 -103
-123 -147 -285 -308 -78 -78 -116 -121 -101 -117 13 4 29 8 35 9 74 15 136 29
156 36 14 5 41 12 60 15 19 3 85 19 145 36 61 17 133 37 160 44 28 8 82 23
120 35 39 12 77 23 85 25 8 2 34 10 58 19 23 8 44 15 47 16 3 0 6 0 8 0 1 0
40 14 87 30 47 17 92 32 100 34 25 7 243 87 275 101 25 11 62 24 85 30 3 1 23
10 45 19 48 22 123 54 150 66 169 71 575 269 595 290 3 3 17 11 33 18 15 6
100 56 188 109 88 54 168 103 177 108 85 50 422 298 517 379 17 15 55 48 85
73 72 62 375 366 420 422 19 24 45 54 58 68 12 13 22 28 22 33 0 4 4 10 8 12
22 9 216 292 273 398 13 25 27 47 30 50 3 3 20 36 38 73 l32 68 -57 107 c-31
59 -74 133 -95 165 -22 32 -39 60 -39 63 0 9 -175 249 -205 280 -5 6 -28 33
-50 59 -109 133 -326 350 -454 455 -30 25 -66 56 -80 69 -14 13 -89 70 -166
128 -77 57 -147 110 -156 117 -9 7 -20 15 -25 17 -5 2 -61 38 -124 80 -226
149 -625 368 -870 477 -56 25 -286 122 -300 127 -3 1 -18 7 -35 14 -153 64
-521 191 -730 253 -115 33 -313 88 -417 114 -27 6 -98 23 -173 40 -11 3 -51
11 -89 18 l-68 14 38 -31z"/>
<path d="M4047 8974 c-1 -2 -14 -5 -27 -8 -23 -4 -105 -23 -140 -31 -25 -7
-144 -36 -162 -41 -25 -6 -45 -11 -113 -30 -33 -9 -64 -17 -70 -19 -5 -1 -17
-4 -25 -8 -8 -3 -44 -13 -80 -22 -173 -45 -768 -254 -856 -300 -16 -8 -32 -15
-36 -15 -3 0 -28 -10 -55 -22 -26 -12 -50 -22 -53 -23 -60 -20 -567 -268 -580
-284 -3 -3 -23 -15 -45 -26 -45 -22 -197 -112 -265 -156 -25 -16 -52 -32 -60
-36 -8 -3 -17 -9 -20 -12 -11 -13 -70 -51 -79 -51 -5 0 -11 -3 -13 -7 -1 -5
-23 -21 -48 -38 -25 -16 -49 -33 -55 -38 -5 -4 -50 -37 -100 -74 -49 -36 -91
-69 -93 -74 -2 -5 -8 -9 -14 -9 -6 0 -18 -8 -27 -18 -9 -10 -25 -25 -37 -33
-52 -35 -214 -181 -323 -290 -144 -144 -239 -252 -350 -399 -39 -52 -74 -99
-78 -105 -43 -56 -126 -194 -187 -307 l-57 -108 46 -90 c72 -144 240 -401 332
-510 11 -14 49 -59 84 -100 106 -127 289 -312 411 -415 55 -47 174 -147 188
-158 35 -29 279 -208 302 -222 9 -5 40 -26 70 -46 105 -72 442 -273 483 -288
5 -2 18 -10 28 -19 9 -8 17 -12 17 -7 0 4 6 3 13 -3 19 -16 241 -126 250 -124
4 1 7 -3 7 -8 0 -5 3 -9 8 -8 8 1 61 -21 157 -69 39 -19 71 -34 73 -33 2 1 40
-14 85 -33 94 -39 109 -45 118 -43 4 0 16 -8 28 -18 12 -11 21 -17 21 -13 0 3
21 -3 48 -13 26 -9 81 -30 122 -45 41 -15 84 -31 95 -36 45 -19 342 -113 505
-160 96 -27 191 -54 210 -59 40 -12 181 -46 269 -66 13 -3 50 -11 83 -19 61
-14 74 -8 34 18 -31 21 -205 194 -286 286 -36 41 -70 79 -75 85 -39 41 -275
368 -275 381 0 2 -22 39 -48 82 -60 96 -177 336 -227 463 -92 235 -177 542
-201 730 -3 25 -14 94 -19 120 -25 131 -26 688 -1 840 3 14 7 43 10 65 3 22 7
49 9 60 3 11 8 42 11 68 10 66 11 69 41 193 14 60 28 116 30 124 5 23 55 180
73 230 9 25 17 47 18 50 0 3 5 16 11 30 6 14 26 61 44 105 38 93 137 293 187
380 39 66 180 283 197 301 5 6 17 22 25 34 73 109 374 438 480 523 l35 28 -38
-3 c-21 -1 -39 -3 -40 -4z"/>
</g>
</svg>
