<svg xmlns="http://www.w3.org/2000/svg" width="3206.478" height="564.246">
  <defs>
    <clipPath id="A">
      <path d="M5249.63 2006.44H7314.1v2064.48H5249.63z"/>
    </clipPath>
    <clipPath id="B">
      <path d="M3404.81 1900.23h2140.11v779.488H3404.81z"/>
    </clipPath>
    <clipPath id="C">
      <path d="M5144.34 2279.35h779.492v2140.11H5144.34z"/>
    </clipPath>
    <clipPath id="D">
      <path d="M3753.48 2008.49h2064.47v2064.46H3753.48z"/>
    </clipPath>
    <clipPath id="E">
      <path d="M5249.65 511.871H7314.1v2064.47H5249.65z"/>
    </clipPath>
    <clipPath id="F">
      <path d="M3753.37 510.332h2064.48v2064.48H3753.37z"/>
    </clipPath>
    <clipPath id="G">
      <path d="M5520.97 1900.57h2140.11v779.5H5520.97z"/>
    </clipPath>
    <clipPath id="H">
      <path d="M5144.55 163.551h779.488v2140.11H5144.55z"/>
    </clipPath>
  </defs>
  <g transform="matrix(1.333333 0 0 -1.333333 -110.69967 612.59398)">
    <path
      d="M2397.963 290.65h-41.14V144.392h42.42v80.41c0 26.276 12.98 33.874 26.6 33.874 15.19 0 19.62-10.448 19.62-26.593v-87.691h42.42v103.519c0 32.924-20.57 46.221-43.05 46.221s-38.94-9.815-46.85-31.657zm-135.79-150.057c42.42 0 70.6 27.859 70.6 77.245 0 49.701-28.18 76.294-70.6 76.294-42.74 0-70.91-26.593-70.91-76.294 0-49.386 28.17-77.245 70.91-77.245m0 119.665c19.31 0 28.81-13.613 28.81-42.42 0-30.392-9.18-44.321-28.81-44.321-19.94 0-29.12 13.929-29.12 44.321 0 28.807 9.49 42.42 29.12 42.42m-137.39-115.866h42.42V290.65h-42.42zm-148.79 33.874c5.7-27.543 26.59-37.673 62.68-37.673 35.78 0 62.68 12.663 62.68 45.271 0 25.008-13.92 40.838-43.68 47.168l-20.58 4.432c-9.81 1.9-14.25 6.016-14.25 13.297 0 7.598 6.65 12.031 16.47 12.031 12.03 0 18.68-3.799 20.26-15.513l39.57 5.698c-2.22 28.492-23.11 41.155-57.93 41.155-30.08 0-59.52-10.448-59.52-47.487 0-22.16 11.71-36.722 37.36-43.371l21.52-5.064c12.98-3.166 18.68-6.964 18.68-15.196 0-8.547-8.23-12.663-19.94-12.663-13.93 0-25.33 6.016-28.49 21.843zm-61.73-33.874h42.42V290.65h-42.42zm-104.11 49.967l-41.51 136.495h-45.9l61.41-186.462h51.92l61.42 186.462h-44.96zm335.87 110.955c13.75 0 24.9 11.146 24.9 24.9s-11.15 24.899-24.9 24.899-24.9-11.147-24.9-24.899 11.15-24.9 24.9-24.9m-210.57 0c13.75 0 24.9 11.146 24.9 24.9s-11.15 24.899-24.9 24.899c-13.76 0-24.91-11.147-24.91-24.899s11.15-24.9 24.91-24.9"
      fill="#10427a"/>
    <g transform="matrix(.1 0 0 .1 7.694 18.702)">
      <g clip-path="url(#A)">
        <path
          d="M5684.05 2442.31c116.85 169.65 200.6 437.58 222.24 747.36 34.01 39.01 70.02 77.61 107.99 115.58 311.48 311.49 665.96 494.3 913.82 494.3 36.04 0 69.87-3.87 100.94-11.78 62.25-244.74-123.82-659.9-480.6-1016.69-38.14-38.14-76.96-74.31-116.19-108.42-310.13-21.24-578.36-103.97-748.2-220.35"
          fill="#ef2e25"/>
      </g>
      <g clip-path="url(#B)">
        <path
          d="M4474.14 1912.26c-502.69 0-926.55 163.03-1057.3 378.87 130.75 215.84 554.61 376.56 1057.3 376.56 55.83 0 110.66-1.95 164.25-5.71 233.17-202.57 479.08-333.17 679.87-370.83-202.26-38.14-450.13-169.33-684.07-373.38-52.24-3.63-105.7-5.51-160.05-5.51"
          fill="#204c85"/>
      </g>
      <g clip-path="url(#C)">
        <path
          d="M5532.82 2291.55l-.07.02-.02.02c.03.01.1.02.13.03 0-.01 0-.03.01-.04-.02-.01-.04-.02-.05-.03m.72 215.79c-37.57 201.99-168.25 449.74-371.83 683.75-3.52 51.46-5.34 104.07-5.34 157.58 0 504.58 159.28 929.71 376.36 1058.76h0c217.08-129.05 379.07-554.18 379.07-1058.76 0-54-1.88-107.09-5.51-159-203.39-233.31-334.33-480.44-372.75-682.33"
          fill="#da1e98"/>
        <path
          d="M5533.06 2291.55c-.04.03-.07.04-.11.07h-.02c-.02-.02-.04-.03-.06-.04-.01.01-.01.03-.01.04.01 0 .01.01.03.01 15.81 62.16 15.6 135.31.65 215.71 38.42 201.89 169.36 449.02 372.75 682.33-21.64-309.78-105.39-577.71-222.24-747.36-66.6-45.64-118.08-96.46-150.99-150.76"
          fill="#da1f26"/>
        <path d="M5532.75 2291.57c-.02 0-.04.01-.06.01.02 0 .03.01.04.01l.02-.02" fill="#141742"/>
      </g>
      <g clip-path="url(#D)">
        <path
          d="M5381.33 2443.53c-168.64 115.29-434.9 196.82-742.94 218.45-40.58 35.25-80.76 72.68-120.26 112.18-355.46 355.44-541.53 768.81-481.37 1013.88 30.71 7.54 64.13 11.24 99.72 11.24 248.46 0 604.89-180.04 915.81-490.97 38.5-38.5 74.99-77.65 109.42-117.22 21.14-309.64 103.6-577.59 219.62-747.56"
          fill="#714180"/>
        <path
          d="M5318.26 2291.15c-200.79 37.66-446.7 168.26-679.87 370.83 308.04-21.63 574.3-103.16 742.94-218.45 45.75-67.01 96.73-118.81 151.21-151.91-30.43 7.43-63.43 11.07-98.61 11.07-36.41 0-75.12-3.9-115.67-11.54"
          fill="#18214e"/>
        <path
          d="M5532.73 2291.59c-32.7 54.91-84.31 106.08-151.4 151.94-116.02 169.97-198.48 437.92-219.62 747.56 203.58-234.01 334.26-481.76 371.83-683.75-15.28-80.29-15.92-153.43-.68-215.72-.03-.01-.1-.02-.13-.03"
          fill="#6a1566"/>
        <path
          d="M5532.86 2291.62c-15.24 62.29-14.6 135.43.68 215.72 14.95-80.4 15.16-153.55-.65-215.71-.02 0-.02-.01-.03-.01"
          fill="#6d1c20"/>
        <path
          d="M5532.69 2291.58c-.06.01-.09.02-.15.04-54.48 33.1-105.46 84.9-151.21 151.91 67.09-45.86 118.7-97.03 151.4-151.94-.01 0-.02-.01-.04-.01"
          fill="#0e0f2e"/>
      </g>
      <g clip-path="url(#E)">
        <path
          d="M6930.18 783.98c-248.18.012-603.73 181.372-914.87 492.53-38.24 38.24-74.55 77.14-108.81 116.39-21.44 308.9-103.93 576.08-219.84 745.58 170.42-116.3 438.54-199.47 748.12-220.61 38.71-33.77 77.01-69.53 114.69-107.2 355.45-355.46 539.89-770.45 479.73-1015.518-30.55-7.5-63.69-11.172-99.02-11.172"
          fill="#fabc09"/>
      </g>
      <g clip-path="url(#F)">
        <path
          d="M4138.31 783.531c-36.41 0-70.48 3.899-101.79 11.871-62.26 244.738 125.74 657.988 482.52 1014.758 37.82 37.82 76.29 73.72 115.15 107.61 308.12 21.39 574.73 103.52 744.29 218.98-114.67-169.66-195.5-436.19-216.5-744.16-34.22-39.37-70.5-78.33-108.77-116.6-311.14-311.131-666.7-492.459-914.9-492.459"
          fill="#129f79"/>
        <path
          d="M4634.19 1917.77c233.94 204.05 481.81 335.24 684.07 373.38 39.82-7.47 77.88-11.29 113.69-11.29 35.94 0 69.68 3.85 100.68 11.7.04-.02.07-.04.11-.06-55.83-33.23-107.81-86.04-154.26-154.75-169.56-115.46-436.17-197.59-744.29-218.98"
          fill="#144646"/>
        <path d="M5532.77 2291.52c0 .02-.01.03-.02.05l.07-.02c-.01-.01-.03-.02-.05-.03" fill="#383e57"/>
        <path d="M5532.74 2291.5l-.11.06.06.02c.02 0 .04-.01.06-.01.01-.02.02-.03.02-.05-.01-.01-.02-.01-.03-.02"
              fill="#161825"/>
        <path
          d="M5431.95 2279.86c-35.81 0-73.87 3.82-113.69 11.29 40.55 7.64 79.26 11.54 115.67 11.54 35.18 0 68.18-3.64 98.61-11.07l.09-.06c-31-7.85-64.74-11.7-100.68-11.7"
          fill="#15212b"/>
        <path d="M5532.63 2291.56l-.09.06c.06-.02.09-.03.15-.04l-.06-.02" fill="#0f101a"/>
      </g>
      <g clip-path="url(#G)">
        <path
          d="M6590.3 1912.61c-52.8 0-104.7 1.79-155.52 5.26-234.4 204.55-482.85 335.96-685.41 373.89 202.1 38.05 449.61 168.06 682.88 370.9 51.6 3.54 104.39 5.37 158.05 5.37 504.57 0 929.71-159.28 1058.75-376.36h0c-129.04-217.08-554.18-379.06-1058.75-379.06"
          fill="#f46a1a"/>
        <path
          d="M5533.3 2291.41l-.17.1c54.23 32.9 105.11 84.29 150.92 150.8 169.84 116.38 438.07 199.11 748.2 220.35-233.27-202.84-480.78-332.85-682.88-370.9-40.23 7.53-78.65 11.38-114.8 11.38-36.2 0-70.11-3.86-101.27-11.73"
          fill="#ed1d24"/>
        <path
          d="M5533.13 2291.51c-.02.01-.05.03-.07.04 32.91 54.3 84.39 105.12 150.99 150.76-45.81-66.51-96.69-117.9-150.92-150.8"
          fill="#ca2128"/>
        <path
          d="M6434.78 1917.87c-309.58 21.14-577.7 104.31-748.12 220.61-46.25 67.63-97.84 119.73-152.98 152.7 30.52-7.42 63.65-11.06 98.97-11.06 36.72 0 75.78 3.93 116.72 11.64 202.56-37.93 451.01-169.34 685.41-373.89"
          fill="#f1471d"/>
        <path
          d="M5632.65 2280.12c-35.32 0-68.45 3.64-98.97 11.06l-.38.23c31.16 7.87 65.07 11.73 101.27 11.73 36.15 0 74.57-3.85 114.8-11.38-40.94-7.71-80-11.64-116.72-11.64"
          fill="#ed1c24"/>
      </g>
      <g clip-path="url(#H)">
        <path
          d="M5533.14 175.582C5317.3 306.32 5156.58 730.191 5156.58 1232.87c0 54.23 1.84 107.59 5.4 159.72 202.7 233.22 332.6 480.62 370.58 682.63 38.25-201.64 169.95-448.58 373.94-682.32 3.62-52.24 5.5-105.68 5.5-160.03 0-502.679-163.02-926.55-378.86-1057.288"
          fill="#72c82d"/>
        <path
          d="M5906.5 1392.9c-203.99 233.74-335.69 480.68-373.94 682.32 15.14 80.51 15.68 153.78.42 216.11.03 0 .02 0 .05.01.03-.01.04-.01.07-.02 33.35-54.98 85.72-106.54 153.56-152.84 115.91-169.5 198.4-436.68 219.84-745.58"
          fill="#7c832e"/>
        <path d="M5533.1 2291.32l-.07.02c.01 0 .04.01.05.01.01-.01.01-.02.02-.03" fill="#882b30"/>
        <path
          d="M5161.98 1392.59c21 307.97 101.83 574.5 216.5 744.16 68.45 46.6 121.08 98.64 154.24 154.3-15.8-62.28-15.41-135.44-.16-215.83-37.98-202.01-167.88-449.41-370.58-682.63m370.89 898.71c.01.01.01.01.01.03v.01c-.02.04-.04.07-.06.11.04-.02.07-.04.11-.07-.02 0-.02 0-.01-.01s.04-.01.05-.02l.01-.02c-.03-.01-.08-.02-.11-.03"
          fill="#0b8f4b"/>
        <path d="M5532.97 2291.35c-.01.01-.04.01-.05.02s-.01.01-.01.02l.02-.01c.01.01.02.01.03.02 0-.01.01-.03.01-.05"
              fill="#363739"/>
        <path
          d="M5378.48 2136.75c46.45 68.71 98.43 121.52 154.26 154.75.02-.02.05-.03.08-.05.02-.04.04-.07.06-.11v-.01c0-.02 0-.02-.01-.03-.03-.01-.06-.02-.09-.02l-.06-.23c-33.16-55.66-85.79-107.7-154.24-154.3"
          fill="#13221b"/>
        <path
          d="M5532.93 2291.38c-.04.03-.07.05-.11.07-.02.03-.03.05-.05.07.02.01.04.02.05.03.01 0 .04-.01.06-.01l.03-.15"
          fill="#363739"/>
        <path d="M5532.93 2291.38h0a.58.58 0 0 0-.05.16c.01-.01.03-.01.05-.02l.03-.12c-.01-.01-.02-.01-.03-.02"
              fill="#363639"/>
        <path d="M5532.82 2291.45c-.03.02-.06.03-.08.05.01.01.02.01.03.02.02-.02.03-.04.05-.07" fill="#0a0a0b"/>
        <path d="M5532.98 2291.33l-.01.02c.02 0 .04-.01.06-.01-.03-.01-.02-.01-.05-.01" fill="#72c82d"/>
        <path
          d="M5533.03 2291.34c-.02 0-.04.01-.06.01 0 .02-.01.04-.01.05.01.01.05.03.07.04l.05-.09c-.01 0-.04-.01-.05-.01"
          fill="#882c30"/>
        <path d="M5532.88 2291.54c-.02 0-.05.01-.06.01.01.01.03.02.05.03 0-.02 0-.03.01-.04" fill="#782e32"/>
        <path
          d="M5532.96 2291.4l-.03.12c-.02.01-.04.01-.05.02s-.01.02-.01.04c.02.01.04.02.06.04h.02c.04-.03.07-.04.11-.07-.02-.02-.04-.05-.05-.08.01-.01.01-.02.02-.03-.02-.01-.06-.03-.07-.04"
          fill="#782d31"/>
        <path
          d="M5532.56 2075.22c-15.25 80.39-15.64 153.55.16 215.83.05.08.1.17.15.25.03.01.08.02.11.03 15.26-62.33 14.72-135.6-.42-216.11"
          fill="#1e6843"/>
        <path d="M5532.72 2291.05l.06.23c.03 0 .06.01.09.02l-.15-.25" fill="#151e1a"/>
        <path d="M5533.08 2291.35c-.02.03-.04.07-.05.09l.1.07c.06-.03.12-.07.17-.1l-.22-.06" fill="#882a30"/>
        <path d="M5533.03 2291.44c-.01.01-.01.02-.02.03.01.03.03.06.05.08.02-.01.05-.03.07-.04l-.1-.07" fill="#6b2e33"/>
        <path
          d="M5686.66 2138.48c-67.84 46.3-120.21 97.86-153.56 152.84.19-.05.39-.09.58-.14 55.14-32.97 106.73-85.07 152.98-152.7"
          fill="#87312f"/>
        <path d="M5533.68 2291.18l-.58.14c-.01.01-.01.02-.02.03l.22.06.38-.23" fill="#882a30"/>
      </g>
    </g>
    <path
      d="M1038.954 248.413h0c-43.177 90.79-159.79 163.63-309.97 195.309 55.149-47.453 90.12-117.705 90.12-196.17 0-78.133-34.679-148.121-89.427-195.567 149.846 32.193 266.166 105.777 309.277 196.428m-736.08-.861c0-78.133 34.678-148.121 89.426-195.567C242.455 84.178 126.134 157.762 83.025 248.413c43.175 90.791 159.787 163.629 309.969 195.309-55.15-47.453-90.12-117.705-90.12-196.17m898.851 78.326V314.22q-12.154 6.077-26.913 10.79-9.674 3.101-24.433 3.349-21.828.372-35.471-9.674-12.402-9.178-12.402-31.502 0-13.767 9.426-21.828 10.046-8.558 30.262-13.767l14.759-3.845q19.844-5.209 30.634-12.402 20.216-13.767 20.216-34.603 0-30.138-17.735-41.796-19.348-12.526-39.687-12.526-21.208 0-37.951 5.829-10.542 4.217-22.076 11.658v12.154q17.363-10.294 24.309-13.147 15.503-6.325 28.773-6.325 22.696 0 37.703 10.046 14.139 9.426 14.139 33.114 0 13.891-8.682 21.828-12.526 11.534-32.494 16.371l-14.883 3.597q-17.859 4.341-30.386 12.154-18.976 11.906-18.976 32.494 0 25.673 15.503 39.439 14.387 12.774 43.656 12.898 17.239 0 26.417-2.977 23.564-7.689 26.293-9.674zm27.974-120.799v83.84h11.41v-83.096q0-27.037 8.682-38.075 8.682-11.038 25.549-11.038 19.72 0 33.734 11.906 14.139 12.03 14.139 41.796v78.507h11.41V150.012h-11.41v26.045q-6.077-12.65-15.999-19.348-14.635-10.046-32.37-10.046-20.588 0-32.866 14.015-12.278 13.891-12.278 44.4zm147.781-23.565V97.178h-11.162v191.74h11.162v-31.75q7.813 18.107 16.991 24.805 14.015 10.294 26.417 10.294 24.681 0 41.052-20.092 16.371-20.092 16.371-52.834 0-32.742-16.371-52.834-16.371-20.092-41.052-20.092-12.402 0-26.417 10.294-9.178 6.697-16.991 24.805zm74.414-10.542q14.387 14.511 14.387 48.369 0 33.858-14.387 48.369-14.263 14.511-30.138 14.511-15.503 0-29.89-14.511-14.263-14.511-14.263-48.369 0-33.858 14.263-48.369 14.387-14.511 29.89-14.511 15.875 0 30.138 14.511zm157.579 54.198v-7.193h-105.42q0-33.486 13.023-46.881 14.387-14.883 42.788-14.883 7.441 0 19.72 3.225 12.402 3.225 24.557 9.674v-12.03q-12.278-5.209-25.177-7.937-12.898-2.729-20.464-2.729-32.122 0-48.369 17.363-17.611 18.48-17.611 54.198 0 37.083 16.123 55.315 16.495 18.976 45.889 18.976 27.285 0 41.176-17.983 13.767-18.852 13.767-49.113zm-11.534 2.48q0 29.27-13.147 42.664-11.038 11.906-30.014 11.906-20.712 0-34.727-12.402-12.898-11.534-15.503-42.168zm108.838 51.471q-2.728 1.364-7.441 2.356-4.217.744-10.666.744-21.084 0-34.975-15.627-10.914-12.65-10.914-43.408v-73.174h-11.162v138.906h11.162v-26.045q5.581 11.162 15.627 18.852 13.891 10.542 32.742 10.542 4.837 0 8.434-.372 3.721 0 7.193-.868z"
      fill="#10427a"/>
  </g>
</svg>

